<?xml version="1.0" encoding="UTF-8" standalone="no"?><!DOCTYPE svg PUBLIC "-//W3C//DTD SVG 1.1//EN" "http://www.w3.org/Graphics/SVG/1.1/DTD/svg11.dtd"><svg width="100%" height="100%" viewBox="0 0 167 167" version="1.1" xmlns="http://www.w3.org/2000/svg" xmlns:xlink="http://www.w3.org/1999/xlink" xml:space="preserve" xmlns:serif="http://www.serif.com/" style="fill-rule:evenodd;clip-rule:evenodd;stroke-linejoin:round;stroke-miterlimit:1.41421;"><rect x="0" y="0" width="166.667" height="166.667" style="fill:#198b79;"/><path d="M134.39,77.475l0,18.62c0,27.421 -22.31,49.731 -49.731,49.731l-2.372,0.007c-4.786,-0.128 -9.411,-0.916 -13.785,-2.277l9.548,-9.086l6.609,0c21.16,0 38.374,-17.215 38.374,-38.375l0,-18.62l11.357,0Zm-86.243,54.218c2.764,2.638 5.824,4.967 9.121,6.939l20.501,-20.501l0,-16.061l-29.622,29.623Zm40.983,-99.33l0,-11.356l45.259,-0.174l0,45.183l-11.356,0l0,-25.445l-81.956,82.204c-2.221,-3.273 -4.07,-6.816 -5.493,-10.568l79.843,-79.844l-26.297,0Zm-56.853,51.226l0,11.093c0,1.6 0.078,3.182 0.222,4.746l45.27,-45.27l0,-16.061l-45.492,45.492Zm45.742,-62.496l-45.742,45.741l0,-16.06l29.68,-29.681l16.062,0Zm-45.742,16.019l0,-16.019l16.019,0l-16.019,16.019Z" style="fill:#fff;fill-rule:nonzero;"/></svg>